<svg id="Camada_1" data-name="Camada 1" xmlns="http://www.w3.org/2000/svg" viewBox="0 0 595.28 351.78"><defs><style>.cls-1{fill:#fff;}</style></defs><path class="cls-1" d="M127.52,125.83a9.62,9.62,0,0,1,9.6,9.6V169h15.49V135.43a25.12,25.12,0,0,0-25.09-25.09H94.14v15.49Z"/><path class="cls-1" d="M26.19,211.67a25.12,25.12,0,0,0,25.09,25.09h40l8.75-8,8.18-7.48H51.28a9.62,9.62,0,0,1-9.6-9.6V177.6H26.19Z"/><path class="cls-1" d="M137.12,200.8v10.87a9.62,9.62,0,0,1-9.6,9.6H121l-16.93,15.49L92.93,246.94v20.37l32.92-30.55h1.67a25.11,25.11,0,0,0,25.07-24.82c0-.09,0-.18,0-.27V177.6H137.12Z"/><path class="cls-1" d="M41.68,135.43a9.62,9.62,0,0,1,9.6-9.6H85.51V110.34H51.28a25.12,25.12,0,0,0-25.09,25.09V169H41.68Z"/><path class="cls-1" d="M194.32,150h5.57l17.74,26.58L235.38,150h5.56v48.71h-5.5V159.27l-17.74,26.1h-.28l-17.74-26v39.39h-5.36Z"/><path class="cls-1" d="M251,208.26l1.81-4.25a11.19,11.19,0,0,0,5.63,1.33c3.2,0,5.22-1.67,7.38-6.75L249.5,162.75h5.91l13.08,30,11.55-30h5.71l-15.1,37.16c-3.06,7.44-6.54,10.16-12,10.16A16.36,16.36,0,0,1,251,208.26Z"/><path class="cls-1" d="M289.15,170.13c4.67-.49,7.17-2.79,7-6.54h-5.29V150h13.71v11.06c0,10.3-5.56,13.85-14.26,14.13Z"/><path class="cls-1" d="M307.24,191.49l7.52-9a25.07,25.07,0,0,0,15.79,5.85c3.62,0,5.57-1.25,5.57-3.34v-.14c0-2-1.6-3.13-8.21-4.66-10.37-2.37-18.37-5.29-18.37-15.31v-.14c0-9,7.17-15.59,18.86-15.59,8.28,0,14.75,2.23,20,6.48l-6.75,9.53a24.47,24.47,0,0,0-13.64-4.8c-3.27,0-4.87,1.39-4.87,3.13v.14c0,2.22,1.67,3.2,8.42,4.73,11.2,2.43,18.16,6.05,18.16,15.17v.14c0,10-7.86,15.86-19.69,15.86C321.44,199.56,313.23,196.85,307.24,191.49Z"/><path class="cls-1" d="M354.83,147.93h13.22v25.75l10.23-12.6h15l-13.08,15.1,13.43,22.55H379.05l-7.59-12.81-3.41,4v8.84H354.83Z"/><path class="cls-1" d="M392.47,180.08v-.14c0-11,7.87-19.69,19-19.69,13,0,19,9.53,19,20.59,0,.84,0,1.81-.07,2.72H405.21c1,4.1,4,6.19,8.14,6.19,3.13,0,5.63-1.18,8.35-3.83L429,192c-3.61,4.59-8.83,7.65-16.35,7.65C400.82,199.63,392.47,191.77,392.47,180.08Zm25.61-3.27c-.49-4.18-2.92-6.82-6.54-6.82s-5.85,2.71-6.54,6.82Z"/><path class="cls-1" d="M434,180.08v-.14c0-12.25,7.65-19.69,16.56-19.69a14.38,14.38,0,0,1,11.55,5.42V147.93h13.22v50.8H462.12v-5c-2.57,3.13-5.84,5.84-11.48,5.84C441.73,199.56,434,192.12,434,180.08Zm28.32-.14v-.14c0-4.94-3.41-8.49-7.65-8.49S447,174.79,447,179.8v.14c0,5,3.48,8.56,7.73,8.56S462.33,185,462.33,179.94Z"/><path class="cls-1" d="M479.86,187.94v-.14c0-7.79,5.92-11.83,14.75-11.83a29.07,29.07,0,0,1,9.05,1.46v-.62c0-3.9-2.44-6.13-7.52-6.13a26.53,26.53,0,0,0-10.36,2.09l-2.72-9.32a37.84,37.84,0,0,1,15.24-2.92c6.75,0,11.34,1.6,14.33,4.59,2.86,2.78,4,6.68,4,12v21.64H503.59v-3.9a14.21,14.21,0,0,1-11.06,4.73C485.36,199.56,479.86,195.46,479.86,187.94Zm23.94-2.85v-1.74a13.77,13.77,0,0,0-5.15-1c-3.83,0-6,1.88-6,4.67v.14c0,2.57,1.94,4.1,4.66,4.1C501.08,191.28,503.8,188.85,503.8,185.09Z"/><path class="cls-1" d="M523,147.93h13.22v50.8H523Z"/><path class="cls-1" d="M543.18,147.93H556.4v50.8H543.18Z"/></svg>